<?xml version="1.0" standalone="no"?>
<!DOCTYPE svg PUBLIC "-//W3C//DTD SVG 20010904//EN"
 "http://www.w3.org/TR/2001/REC-SVG-20010904/DTD/svg10.dtd">
<svg version="1.0" xmlns="http://www.w3.org/2000/svg"
 width="253.000000pt" height="234.000000pt" viewBox="0 0 253.000000 234.000000"
 preserveAspectRatio="xMidYMid meet">

<g transform="translate(0.000000,234.000000) scale(0.100000,-0.100000)"
fill="#000000" stroke="none">
<path d="M819 2045 c-27 -14 -38 -35 -434 -750 -213 -384 -225 -408 -225 -451
0 -22 7 -50 16 -63 31 -44 69 -51 272 -51 133 0 192 -4 200 -12 8 -8 12 -68
12 -203 0 -173 2 -193 20 -223 11 -18 36 -40 55 -48 46 -19 243 -19 289 0 64
27 66 36 66 282 0 165 -3 224 -12 232 -7 5 -41 12 -75 14 -75 5 -103 26 -103
74 0 24 47 122 161 338 89 168 165 303 169 301 5 -3 31 -47 58 -98 27 -50 99
-185 160 -299 119 -221 131 -258 92 -293 -14 -13 -41 -20 -83 -23 -34 -2 -68
-9 -74 -14 -10 -8 -13 -67 -13 -232 0 -246 2 -255 66 -282 46 -19 243 -19 289
0 19 8 44 30 55 48 18 30 20 50 20 223 0 135 4 195 12 203 8 8 67 12 200 12
203 0 241 7 272 51 24 34 20 92 -10 152 -15 29 -104 192 -199 362 -94 171
-223 404 -286 519 -121 221 -142 246 -207 246 -71 0 -82 -13 -212 -267 -67
-131 -128 -244 -135 -252 -11 -12 -33 24 -134 226 -131 262 -154 293 -219 293
-20 -1 -49 -7 -63 -15z m105 -36 c31 -24 256 -465 256 -500 0 -12 -67 -148
-148 -303 -174 -330 -176 -335 -168 -380 10 -54 55 -86 120 -86 28 0 57 -5 64
-12 9 -9 12 -69 12 -208 l0 -196 -31 -30 c-29 -28 -34 -29 -142 -32 -189 -5
-197 7 -197 283 0 135 -4 195 -12 203 -9 9 -70 12 -212 12 -181 0 -204 2 -233
19 -63 39 -55 76 62 281 24 41 127 228 230 415 266 482 283 512 312 535 33 26
54 25 87 -1z m710 -11 c21 -20 102 -163 391 -688 23 -41 85 -154 138 -251 105
-190 116 -230 77 -269 -19 -19 -33 -20 -229 -20 -177 0 -212 -2 -225 -16 -13
-13 -16 -46 -17 -202 0 -117 -5 -200 -12 -222 -18 -53 -61 -70 -175 -70 -101
0 -153 15 -171 49 -8 13 -10 88 -9 218 l3 198 50 6 c28 4 60 9 71 13 34 11 65
52 71 93 5 43 0 55 -205 434 -67 125 -122 231 -122 237 0 23 244 483 263 497
31 22 72 19 101 -7z"/>
</g>
</svg>
